<?xml version="1.0" encoding="UTF-8"?>
<svg xmlns="http://www.w3.org/2000/svg" xmlns:xlink="http://www.w3.org/1999/xlink" width="854" height="480" viewBox="0 0 854 480">
<defs>
<g>
<g id="glyph-0-0">
<path d="M 3.085938 -4.1875 C 3.199219 -3.945312 3.285156 -3.683594 3.339844 -3.40625 C 3.394531 -3.128906 3.421875 -2.816406 3.421875 -2.476562 C 3.421875 -2.160156 3.394531 -1.855469 3.339844 -1.558594 C 3.28125 -1.261719 3.199219 -0.996094 3.082031 -0.761719 C 2.949219 -0.492188 2.78125 -0.28125 2.578125 -0.128906 C 2.375 0.0234375 2.132812 0.0976562 1.851562 0.0976562 C 1.566406 0.0976562 1.324219 0.0195312 1.121094 -0.132812 C 0.914062 -0.289062 0.75 -0.496094 0.625 -0.761719 C 0.503906 -1.007812 0.417969 -1.269531 0.367188 -1.542969 C 0.3125 -1.820312 0.285156 -2.128906 0.285156 -2.472656 C 0.285156 -2.824219 0.3125 -3.132812 0.359375 -3.398438 C 0.410156 -3.664062 0.496094 -3.929688 0.617188 -4.1875 C 0.742188 -4.445312 0.90625 -4.65625 1.117188 -4.8125 C 1.324219 -4.96875 1.570312 -5.046875 1.855469 -5.046875 C 2.140625 -5.046875 2.386719 -4.96875 2.589844 -4.8125 C 2.796875 -4.65625 2.960938 -4.445312 3.085938 -4.1875 M 2.746094 -2.707031 C 2.746094 -3.09375 2.722656 -3.417969 2.675781 -3.683594 C 2.628906 -3.953125 2.5625 -4.167969 2.480469 -4.332031 C 2.402344 -4.496094 2.308594 -4.617188 2.199219 -4.6875 C 2.089844 -4.761719 1.976562 -4.796875 1.851562 -4.796875 C 1.726562 -4.796875 1.609375 -4.761719 1.503906 -4.695312 C 1.402344 -4.625 1.308594 -4.503906 1.222656 -4.335938 C 1.144531 -4.171875 1.078125 -3.957031 1.035156 -3.691406 C 0.988281 -3.421875 0.960938 -3.09375 0.960938 -2.707031 L 2.746094 -2.707031 M 2.484375 -0.617188 C 2.566406 -0.792969 2.632812 -1.011719 2.675781 -1.277344 C 2.722656 -1.539062 2.746094 -1.882812 2.746094 -2.304688 L 2.746094 -2.417969 L 0.960938 -2.417969 L 0.960938 -2.304688 C 0.960938 -1.890625 0.984375 -1.546875 1.027344 -1.277344 C 1.074219 -1.003906 1.136719 -0.785156 1.214844 -0.617188 C 1.292969 -0.453125 1.382812 -0.335938 1.492188 -0.261719 C 1.601562 -0.1875 1.722656 -0.148438 1.851562 -0.148438 C 1.976562 -0.148438 2.09375 -0.1875 2.203125 -0.257812 C 2.3125 -0.332031 2.40625 -0.453125 2.484375 -0.617188 Z "/>
</g>
<g id="glyph-0-1">
<path d="M 1.660156 0.09375 C 1.253906 0.09375 0.9375 -0.046875 0.710938 -0.324219 C 0.488281 -0.605469 0.375 -1.003906 0.375 -1.523438 C 0.375 -2.019531 0.484375 -2.410156 0.707031 -2.703125 C 0.929688 -2.992188 1.246094 -3.136719 1.660156 -3.136719 C 2.066406 -3.136719 2.382812 -2.996094 2.609375 -2.707031 C 2.832031 -2.417969 2.945312 -2.023438 2.945312 -1.523438 C 2.945312 -1.011719 2.832031 -0.613281 2.605469 -0.332031 C 2.378906 -0.046875 2.0625 0.09375 1.660156 0.09375 M 1.660156 -2.898438 C 1.199219 -2.898438 0.964844 -2.441406 0.964844 -1.519531 C 0.964844 -0.601562 1.199219 -0.144531 1.660156 -0.144531 C 1.878906 -0.144531 2.050781 -0.261719 2.171875 -0.5 C 2.292969 -0.734375 2.351562 -1.074219 2.351562 -1.519531 C 2.351562 -2.441406 2.121094 -2.898438 1.660156 -2.898438 Z "/>
</g>
<g id="glyph-0-2">
</g>
<g id="glyph-0-3">
<path d="M 3.785156 -2.222656 L 0.5 -2.222656 L 0.5 -2.628906 L 3.785156 -2.628906 L 3.785156 -2.222656 M 3.785156 -1.011719 L 0.5 -1.011719 L 0.5 -1.417969 L 3.785156 -1.417969 Z "/>
</g>
<g id="glyph-0-4">
<path d="M 2.742188 -1.527344 C 2.886719 -1.414062 3.007812 -1.269531 3.101562 -1.089844 C 3.195312 -0.914062 3.242188 -0.691406 3.242188 -0.421875 C 3.242188 0.0429688 3.082031 0.429688 2.761719 0.730469 C 2.445312 1.035156 2.039062 1.1875 1.550781 1.1875 C 1.167969 1.1875 0.847656 1.097656 0.585938 0.917969 C 0.324219 0.738281 0.191406 0.527344 0.191406 0.289062 C 0.191406 0.179688 0.21875 0.0820312 0.273438 0 C 0.328125 -0.0820312 0.410156 -0.125 0.523438 -0.125 C 0.652344 -0.125 0.753906 -0.0898438 0.820312 -0.0195312 C 0.890625 0.046875 0.925781 0.121094 0.925781 0.203125 C 0.925781 0.269531 0.914062 0.359375 0.886719 0.460938 C 0.863281 0.566406 0.847656 0.644531 0.832031 0.691406 C 0.851562 0.707031 0.878906 0.730469 0.917969 0.753906 C 0.957031 0.78125 1.003906 0.804688 1.058594 0.828125 C 1.113281 0.855469 1.183594 0.875 1.265625 0.894531 C 1.347656 0.910156 1.441406 0.921875 1.550781 0.921875 C 1.6875 0.921875 1.820312 0.894531 1.941406 0.835938 C 2.066406 0.78125 2.171875 0.695312 2.257812 0.585938 C 2.347656 0.464844 2.417969 0.324219 2.464844 0.171875 C 2.511719 0.015625 2.535156 -0.179688 2.535156 -0.417969 C 2.535156 -0.726562 2.449219 -0.980469 2.28125 -1.179688 C 2.109375 -1.378906 1.886719 -1.480469 1.609375 -1.480469 C 1.433594 -1.480469 1.273438 -1.449219 1.121094 -1.382812 C 0.96875 -1.316406 0.835938 -1.210938 0.714844 -1.058594 L 0.496094 -1.140625 L 0.773438 -3.492188 L 3.105469 -3.492188 L 3.105469 -2.914062 L 1.039062 -2.914062 L 0.867188 -1.53125 C 0.964844 -1.601562 1.09375 -1.671875 1.253906 -1.738281 C 1.414062 -1.808594 1.589844 -1.84375 1.78125 -1.84375 C 1.9375 -1.84375 2.101562 -1.816406 2.273438 -1.769531 C 2.445312 -1.71875 2.601562 -1.640625 2.742188 -1.527344 Z "/>
</g>
<g id="glyph-0-5">
<path d="M 3.347656 -3.28125 L 1.03125 1.1875 L 0.621094 1.1875 L 2.804688 -2.945312 L 1.527344 -2.945312 C 1.335938 -2.945312 1.191406 -2.945312 1.085938 -2.9375 C 0.976562 -2.933594 0.878906 -2.914062 0.789062 -2.878906 C 0.722656 -2.847656 0.664062 -2.777344 0.609375 -2.660156 C 0.558594 -2.546875 0.515625 -2.398438 0.488281 -2.21875 L 0.289062 -2.21875 L 0.289062 -3.492188 L 3.347656 -3.492188 Z "/>
</g>
<g id="glyph-0-6">
<path d="M 2.457031 -3.671875 C 2.457031 -3.375 2.359375 -3.125 2.160156 -2.917969 C 1.960938 -2.714844 1.707031 -2.613281 1.394531 -2.613281 C 1.085938 -2.613281 0.828125 -2.71875 0.632812 -2.921875 C 0.4375 -3.128906 0.339844 -3.378906 0.339844 -3.671875 C 0.339844 -3.976562 0.4375 -4.230469 0.640625 -4.429688 C 0.84375 -4.628906 1.09375 -4.730469 1.394531 -4.730469 C 1.707031 -4.730469 1.960938 -4.628906 2.160156 -4.421875 C 2.359375 -4.21875 2.457031 -3.96875 2.457031 -3.671875 M 1.976562 -3.644531 C 1.976562 -3.917969 1.921875 -4.125 1.816406 -4.269531 C 1.710938 -4.414062 1.570312 -4.484375 1.394531 -4.484375 C 1.214844 -4.484375 1.074219 -4.414062 0.972656 -4.265625 C 0.871094 -4.121094 0.820312 -3.925781 0.820312 -3.679688 C 0.820312 -3.425781 0.871094 -3.226562 0.972656 -3.078125 C 1.074219 -2.933594 1.21875 -2.859375 1.40625 -2.859375 C 1.550781 -2.859375 1.683594 -2.925781 1.800781 -3.058594 C 1.917969 -3.191406 1.976562 -3.386719 1.976562 -3.644531 Z "/>
</g>
</g>
</defs>
<g fill="rgb(51.372549%, 75.686275%, 40.392157%)" fill-opacity="1">
<use xlink:href="#glyph-0-0" x="30" y="26.112305"/>
<use xlink:href="#glyph-0-1" x="34" y="26.112305"/>
<use xlink:href="#glyph-0-2" x="37" y="26.112305"/>
<use xlink:href="#glyph-0-3" x="39" y="26.112305"/>
<use xlink:href="#glyph-0-2" x="43" y="26.112305"/>
<use xlink:href="#glyph-0-4" x="45" y="26.112305"/>
<use xlink:href="#glyph-0-5" x="49" y="26.112305"/>
<use xlink:href="#glyph-0-6" x="52" y="26.112305"/>
</g>
</svg>
